<?xml version="1.0" encoding="utf-8"?>
<!-- Generator: Adobe Illustrator 11.0, SVG Export Plug-In  -->
<!DOCTYPE svg PUBLIC "-//W3C//DTD SVG 1.0//EN"    "http://www.w3.org/TR/2001/REC-SVG-20010904/DTD/svg10.dtd" [
	<!ENTITY ns_flows "http://ns.adobe.com/Flows/1.0/">
	<!ENTITY ns_svg "http://www.w3.org/2000/svg">
	<!ENTITY ns_xlink "http://www.w3.org/1999/xlink">
]>
<svg  xmlns="&ns_svg;" xmlns:xlink="&ns_xlink;" xmlns:a="http://ns.adobe.com/AdobeSVGViewerExtensions/3.0/"
	 width="565" height="603" viewBox="-0.121 -0.799 565 603" xml:space="preserve">
	<defs>
	</defs>
	<g>
		<path fill="#118E34" d="M563.895,362.831c-0.322-1.247-0.742-2.521-1.303-4.033c-1.092-2.898-2.016-4.412-3.556-7.1
			c-2.535-4.426-4.355-6.693-7.548-10.655c-2.464-3.068-3.921-4.747-6.666-7.563c-1.959-2.017-3.71-3.248-5.434-4.677
			c-1.287-1.037-2.548-2.156-3.892-3.753c-1.514-1.806-2.297-2.898-3.543-4.886c1.302-0.827,2.1-1.232,3.543-1.779
			c2.632-1.008,4.453-0.392,7.113-1.331c4.495-1.581,7.142-3.149,10.124-6.874c1.89-2.382,1.988-4.342,3.641-6.891
			c1.681-2.59,3.78-3.346,4.887-6.217c0.632-1.652,0.842-2.674,0.883-4.438c-1.736,1.582-3.095,2.24-5.42,2.632
			c-2.017,0.35-3.263-0.98-5.236-0.42c-1.568,0.448-2.045,1.582-3.558,2.226c-2.604,1.106-4.383,0.729-7.211,0.911
			c-4.508,0.28-7.408,1.302-11.566-0.477c-2.479-1.049-3.445-2.422-5.643-3.99c-2.425-1.723-5.98-1.471-6.218-4.439
			c-0.098-1.232,0.321-2.169,1.037-2.968c0.951-1.05,2.422-1.764,3.906-2.436c2.353-1.051,4.018-0.406,6.608-0.365
			c3.333,0.042,5.321,1.876,8.515,0.896c1.721-0.546,2.675-1.092,4.02-2.31l-2.773-0.813c-1.919-0.56-3.067-0.7-4.93-1.415
			c-3.529-1.372-8.317-4.984-8.317-4.984c-4.536,0.195-7.407-0.602-11.202-3.08c-2.423-1.569-2.59-4.188-5.308-5.168
			c-1.625-0.602-2.716-0.714-4.439-0.449c-0.783-0.797-1.175-1.316-1.693-2.31c-1.372-2.577-2.115-4.901-0.687-7.436
			c0.925-1.653,1.989-2.381,3.739-3.053c2.59-1.008,4.312,0.561,7.086,0.798c3.977,0.363,6.229,0.35,10.222,0.56l7.099,0.336
			l-4.004-2.227c-4.342-2.408-7.156-3.207-11.091-6.217c-1.429-1.065-2.422-2.045-3.388-3.025c-0.98-0.995-1.934-2.03-3.292-3.193
			c-3.178-2.73-5.153-4.061-8.485-6.608c-3.208-2.465-11.16-3.46-8.248-6.26c1.387-1.33,2.843-1.078,4.747-1.344
			c3.655-0.476,5.965-0.126,9.326,1.33c2.297,0.994,3.095,2.451,5.335,3.558c3.696,1.833,6.315,1.344,10.249,2.604
			c1.458,0.461,2.271,0.742,3.698,1.26c-1.134-2.213-1.989-3.403-3.739-5.196c-1.806-1.862-3.037-2.772-5.322-3.991
			c-0.992-2.03-1.482-3.207-2.226-5.335c-1.217-3.529-2.73-5.615-2.212-9.326c0.337-2.464,0.939-3.893,2.38-5.923
			c1.541-2.115,3.193-2.563,5.168-4.285c2.856-2.506,4.005-4.466,7.1-6.666c1.316-0.938,2.521-1.33,3.697-1.862
			c0.909-0.406,1.791-0.882,2.702-1.75c2.353-2.199,2.898-4.145,4.256-7.043c1.695-3.627,2.115-5.895,3.109-9.774
			c0.938-3.584,2.562-5.657,1.932-9.313c-0.545-3.178-1.428-5.223-3.92-7.267c-2.016-1.653-4.201-0.799-6.204-2.465
			c-1.818-1.526-3.206-3.081-3.683-5.069c-0.183-0.771-0.238-1.61-0.112-2.535c0.253-1.918,1.261-2.758,2.227-4.438
			c1.246-2.185,4.678-3.081,3.6-5.363c-1.232-2.604-7.31-1.064-7.155,1.807c-1.205,0.91-2.282,1.162-3.768,0.881
			c-2.114-0.391-3.5-1.792-3.879-3.907c1.359-3.473,1.625-5.811,1.106-9.494c-0.447-3.081-1.106-4.845-2.786-7.463
			c-1.373,3.039-2.717,4.678-5.461,6.596c-1.681,1.176-2.843,3.038-4.763,2.296c-1.245-0.504-1.707-1.415-2.211-2.675
			c-1.232-3.094,2.674-4.48,3.99-7.547c0.812-1.876,1.219-2.969,1.835-4.929c-0.687,0.574-1.094,0.882-1.835,1.372
			c-3.626,2.451-6.356,2.702-10.657,3.557c-3.415,0.686-5.613-0.309-8.876,0.896c-3.445,1.26-5.351,2.618-7.675,5.461
			c-0.407-2.703-0.782-4.215-1.652-6.805c-1.496-4.397-3.079-7.324-5.39-10.418h-0.021c-1.022-1.355-3.48-4.229-3.48-4.229
			c-2.352-2.73-4.061-3.907-6.665-6.413l1.303-3.318l9.704-4.005v-3.907c-3.305-3.038-5.561-4.466-9.704-6.175
			c-2.954-1.205-5.882,0.335-7.925-2.143c-1.822-2.213-1.499-4.453-1.024-7.268c0.911-5.433,8.165-4.802,9.958-10.012
			c0.881-2.604,1.077-4.271,0.783-7.001l-3.585-4.93c-0.379,4.131-5.391,7.058-9.171,5.378c-1.92-0.854-2.227-2.423-3.571-4.033
			c-2.744-3.248-3.543-5.713-6.61-8.668c-2.029-1.96-3.179-3.165-5.685-4.481c-3.796-1.988-6.484-1.848-10.754-2.226
			c-7.354-0.63-11.496,3.207-18.807,2.171c-11.651-1.639-14.354-12.646-25.682-15.824c-3.739-1.05-5.979-2.618-9.772-1.82
			c-5.646,1.205-4.944,8.346-10.194,10.712c-3.474,1.555-6.513,3.824-9.636,1.625c-4.186-2.955,0.322-8.836,3.81-12.603
			c1.819-1.946,4.678-1.343,5.672-3.823c1.765-4.411-6.877-2.912-11.497-4.004c-3.893-0.911-6.147-1.247-10.151-1.484
			l-13.849,21.578l-2.172-2.408l8.431-21.901c-2.326,2.871-4.061,4.299-7.338,6.008c-3.6,1.89-6.063,3.444-10.055,2.688
			c-2.38-0.448-3.529-1.414-5.587-2.688c-3.151-1.961-4.158-4.089-7.169-6.274c-3.334-2.409-5.392-3.599-9.146-5.307l-1.356,3.403
			c-1.961,5.069-2.143,8.29-4.495,13.19c-1.905,3.921-2.101,7.254-5.812,9.536c-2.311,1.415-4.453,3.277-6.722,1.792
			c-2.829-1.862,0.49-5.391,1.792-8.513c2.115-5.041,7.8-5.377,9.074-10.699c0.644-2.717,0.644-4.453,0-7.169
			c-1.008,1.848-1.933,2.814-3.725,3.892c-3.879,2.353-7.086-0.854-11.608-0.56c-7.646,0.476-12.659,0.644-19.03,4.916
			c-3.935,2.646-6.078,4.635-8.5,8.723c-3.711,6.246-2.128,11.175-3.136,18.358c-0.603,4.271,2.577,9.186-1.345,10.965
			c-3.192,1.456-6.315-0.238-8.472-3.011c-2.142-2.73-1.05-5.377-0.924-8.85c0.125-3.389,0.7-5.265,1.512-8.556
			c1.148-4.718,2.073-7.365,4.117-11.79l-13.905,10.054c-2.381,2.394-4.243,3.473-7.506,4.354c-5.839,1.555-9.13-2.506-15.095-3.458
			c-6.623-1.064-10.432-1.736-17.125-1.456c-9.522,0.406-14.675,2.786-23.833,5.419c-6.441,1.863-10.054,3.066-16.341,5.433
			c3.893-0.979,7.324,0.309,9.62,3.585c1.163,1.653,1.737,2.899,1.639,4.929c-0.196,4.061-4.327,4.873-7.884,6.862
			c-6.525,3.641-11.581,1.694-19.043,2.311c-4.481,0.364-7.016,0.504-11.511,0.658c2.479,2.969,3.921,4.593,6.595,7.394
			c2.548,2.675,6.189,2.997,6.75,6.638c0.56,3.697-2.703,5.195-4.621,8.401c-2.717,4.566-4.397,7.072-7.576,11.329l11.833-3.234
			l7.967-1.401c2.646,0.603,4.341,2.632,4.439,5.35c0.07,1.75-0.378,2.94-1.596,4.201c-12.182,1.946-19.058,3.921-30.4,8.78
			c-4.411,1.891-8.08,3.248-11.497,4.957c-4.005,1.961-7.687,4.243-11.833,8.024c-7.673,6.987-10.167,12.785-15.067,21.942
			c-2.562,4.775-4.509,8.822-6.105,12.799c-2.184,5.433-3.725,10.824-5.335,18.035c1.274-5.643,7.254-9.157,12.799-7.505
			c1.792,0.518,2.786,1.106,4.13,2.395c-0.392,3.627-1.021,5.699-2.674,8.948c-2.814,5.503-6.343,7.393-11.188,11.203
			c-6.33,4.942-11.385,5.838-17.966,9.605c-0.491,0.28-0.995,0.588-1.513,0.896c-6.217,3.865-10.726,5.083-15.403,10.712
			c-4.621,5.545-6.526,9.704-7.702,16.818c5.895-3.543,9.675-5.027,16.397-6.483c6.33-1.373,10.306,0.616,16.58-0.994
			c4.074-1.037,6.343-1.918,10.04-3.935c2.492,2.156,3.459,4.565,3.137,7.828c-0.518,5.292-6.735,4.859-10.964,8.065
			c-6.413,4.859-10.054,7.59-16.187,12.827c-2.521,2.156-4.93,3.878-7.198,5.503c-4.999,3.571-9.312,6.707-12.646,13.219
			c-3.318,6.483-4.396,10.852-4.48,18.134c2.212-3.725,3.78-5.699,6.889-8.71c5.027-4.859,8.794-6.763,15.277-9.424
			c8.333-3.417,14.801,0.168,22.726-4.104c4.328-2.324,6.526-5.656,8.557-9.115c2.241-3.795,4.298-7.758,8.765-10.727
			c7.521-4.971,12.841-6.469,21.734-7.925c7.294-1.19,11.65-1.218,18.958-0.14c-2.492,5.251-4.508,8.065-8.681,12.099
			c-3.221,3.123-5.938,5.041-9.158,6.693c-1.933,0.994-4.033,1.89-6.54,2.885c-7.477,2.968-12.574,1.471-20.262,3.836
			c-13.807,4.229-20.389,9.872-32.529,17.7c-1.036,0.672-1.667,1.008-2.674,1.75c-6.175,4.537-7.702,9.928-9.816,16.481
			c-0.603,1.82-1.247,3.725-2.059,5.713c-4.832,11.917-4.383,19.66-8.052,31.997c-0.546,1.849-1.05,3.557-1.525,5.069
			c-1.583,5.11-2.941,9.114-5.069,15.095c3.725-0.672,5.839-1.442,9.129-3.319c5.35-3.053,6.078-8.051,10.194-11.818
			c0.546-0.503,1.149-0.993,1.821-1.441c2.142-1.429,3.444-2.13,5.811-3.137c0.111,1.82,0.097,3.137-0.084,4.593
			c-0.07,0.715-0.196,1.47-0.35,2.338c-0.798,4.243-1.737,6.651-4.033,10.307L44.33,332.5c1.484-1.316,2.759-2.507,3.879-3.697
			c2.716-2.884,4.635-5.712,6.861-9.956c5.35-10.109,1.989-17.868,5.153-28.859c0.378-1.344,0.7-2.605,0.98-3.879
			c1.457-6.203,2.087-11.048,6.624-16.481c6.175-7.436,13.316-7.184,21.858-11.693c6.203-3.277,9.004-7.184,15.92-8.332
			c3.291-0.546,6.246-2.549,8.557-0.126c2.926,3.08-2.143,6.469-4.79,9.816c-4.033,5.096-8.303,5.895-14.017,8.99
			c-7.73,4.187-15.305,1.848-20.794,8.724c-2.45,3.052-3.165,6.007-3.585,9.129c-0.364,2.689-0.518,5.545-1.358,8.766
			c-3.137,12.015-1.387,20.066-7.296,30.975c-0.56,1.051-1.106,2.058-1.638,2.955c-3.291,5.671-6.288,9.367-11.917,13.975
			c-6.904,5.671-13.625,4.522-20.444,10.291c-3.767,3.193-5.854,6.372-7.842,9.746c-1.708,2.886-3.347,5.925-5.909,9.285
			c-4.873,6.343-10.39,8.359-12.883,15.977c-1.036,3.207-1.611,6.092-1.681,8.962c-0.14,5.041,1.289,9.731,4.37,14.871
			c0.07-5.881,1.246-10.6,3.837-14.829c1.652-2.688,3.878-5.083,6.777-7.506c3.893-3.248,6.791-4.229,11.566-5.938
			c2.38-0.84,3.753-1.246,6.218-1.778c-1.205,2.633-1.891,4.104-3.165,6.708c-1.568,3.248-3.235,6.021-4.901,8.514
			c-4.775,7.353-9.578,12.952-12.351,22.979c-1.162,4.173-1.667,6.597-2.213,10.909l3.095-1.582
			c4.271-8.179,8.207-12.463,15.992-17.406c5-3.164,8.192-7.086,13.989-5.896c9.969,2.059-7.254,14.228-10.881,23.735
			c-0.196,0.504-0.378,1.009-0.559,1.441c-2.059,5.406-3.389,8.879-4.86,14.872c-1.064,4.328-1.54,6.806-2.128,11.231l6.441-3.306
			c2.815-1.456,4.299-4.957,7.198-3.725c1.372,0.573,1.917,1.399,2.73,2.633c2.45,3.794,0.112,7.406-1.988,11.397
			c-0.183,0.351-0.364,0.659-0.56,1.008c-2.465,4.258-5.433,6.568-10.349,8.123c1.667,1.147,2.674,1.708,4.509,2.521
			c2.241,0.966,3.557,2.1,5.979,1.805c3.024-0.378,3.822-2.829,6.188-4.746c2.241-1.834,3.697-2.689,5.615-4.858
			c0.925-1.036,1.597-1.947,2.186-2.816c0.755-1.175,1.386-2.478,2.24-4.045c1.89-3.473,1.988-5.923,4.004-9.327
			c2.002-3.402,3.893-4.789,6.217-7.994c1.919-2.646,2.758-4.328,4.733-6.947c1.821-2.422,3.192-3.725,4.916-5.854
			c0.223-0.279,0.461-0.629,0.714-0.951c2.367-3.163,3.795-4.942,5.615-8.458c2.044-3.934,3.052-6.315,4.005-10.655
			c0.56-2.55,0.755-4.033,0.882-6.652l-4.887,5.77l-5.881,9.186c-1.345,4.341-3.669,6.876-7.884,8.569
			c-3.221,1.304-6.12,2.549-8.878,0.449c-3.123-2.367-2.212-6.217-1.106-9.971c1.483-5.068,6.609-5.068,9.984-9.115
			c3.584-4.313,3.935-7.954,7.422-12.267c0.07-0.084,0.139-0.169,0.195-0.253c5.07-6.007,9.158-8.358,15.922-12.365
			c3.668-2.156,5.839-3.233,9.773-4.886l4.243,2.702c-2.297,1.135-3.515,2.044-5.279,3.906c-3.206,3.375-3.57,6.652-4.48,10.797
			c-0.196,0.882-0.406,1.778-0.687,2.744c-2.87,9.845,0.729,16.733-3.57,26.047c-1.009,2.17-2.017,3.822-3.096,5.39
			c0,0-3.066,3.949-4.957,6.554c-4.243,5.798-8.542,7.8-11.58,14.297c-2.296,4.916-3.725,8.766-3.907,13.303
			c-0.084,1.904,0.056,3.936,0.449,6.19c0.896,5.209,2.184,8.205,5.321,12.447c1.61-3.625,2.618-5.628,4.579-9.088
			c2.241-3.935,4.229-6.679,6.399-9.522c1.527-2.016,3.151-4.102,5.013-6.706c4.243-5.909,8.136-8.374,11.021-15.067
			c1.96-4.551,1.4-8.29,1.918-12.394c0.224-1.693,0.63-3.387,1.471-5.264c1.358-2.983,1.021-6.918,4.284-7.226
			c2.535-0.238,4.664,1.161,5.448,3.57l1.134,2.227c-0.756,2.409-1.47,4.565-2.17,6.664c-2.87,8.347-5.615,14.481-10.376,23.54
			c-2.227,4.243-4.355,7.478-6.483,10.628c-2.871,4.201-5.741,8.123-8.905,13.752c-3.824,6.777-8.291,9.997-9.187,17.727
			c-0.757,6.681-0.42,11.37,3.417,16.902c1.428,2.072,2.437,3.15,4.411,4.705c-0.238-11.203,1.036-17.896,5.349-28.243
			c3.305-7.885,6.904-11.469,11.552-18.652c1.555-2.395,4.383-6.163,4.383-6.163c2.66-3.557,5.097-6.706,7.604-11.594
			c3.151-6.104,4.383-9.843,6.525-16.368c0.755-2.34,1.373-4.286,1.905-6.205c0.825-2.939,1.456-5.643,2.226-9.409l2.674-2.661
			c1.162,4.552,1.778,8.332,1.863,12.07c0.07,4.216-0.533,8.374-1.835,13.499c-2.17,8.557-4.621,13.374-10.25,20.179l-0.323,0.489
			l-13.134,19.983l-6.078,23.483c0.294,8.611,1.429,13.652,4.888,21.536c0.49,1.135,0.994,2.227,1.497,3.249
			c4.594,9.466,9.663,15.137,18.975,21.549l-4.928-17.461c-0.379-1.399-0.701-2.688-1.009-4.031
			c-2.226-9.817-2.325-16.973-0.616-27.824c1.947-12.323,11.384-29.868,11.384-29.868l3.613,5.195
			c-2.661,9.395-3.753,14.856-4.943,24.547c-1.331,10.88-3.319,17.699-1.386,27.852c0.14,0.771,0.308,1.554,0.504,2.352
			c1.512,6.358,2.506,10.166,6.217,15.543c3.347,4.846,5.896,7.324,10.88,10.475c-3.781-4.493-5.348-7.814-6.441-13.582
			c-0.756-3.963-0.084-6.315-0.112-10.362c-0.014-1.596-0.028-3.054-0.028-4.383c0.014-4.594,0.056-8.22-0.041-13.639
			c-0.07-4.005-1.149-6.358-0.267-10.251c0.854-3.78,3.165-5.224,4.438-8.878c1.191-3.389,1.261-5.475,2.003-8.989
			c0.644-3.067,1.148-4.775,1.554-7.885c0.839-6.356,0.434-10.039,0-16.438c-0.056-0.813-0.112-1.527-0.168-2.172
			c-0.182-2.238-0.406-4.045-0.77-6.679c-0.645-4.55-1.793-7-2.171-11.58c-0.434-5.181,0.883-8.135,0.449-13.316
			c-0.084-0.967-0.182-1.819-0.308-2.605c-0.336-2.212-0.799-4.004-1.26-6.65c-1.414-8.178-3.109-12.674-3.767-20.948
			c-0.196-2.465-0.238-4.523-0.224-6.54c0.028-3.275,0.224-6.218,0.224-10.333c0-5.546,0.224-8.669,0-14.213
			c-0.14-3.81-0.014-6.625-0.238-9.691c-0.153-1.932-0.462-3.935-1.092-6.286c-1.26-4.734-2.324-7.395-4.887-11.553
			c-1.61-2.619-2.661-4.033-4.719-6.302c-0.616,1.357-0.826,2.227-0.91,3.711c-0.238,4.145,1.288,7.226,4.747,9.521l-1.33,5.503
			l-1.778,2.213c-0.869-0.98-1.316-1.568-2.059-2.633c-2.338-3.43-3.585-5.685-4.159-9.802c-0.56-3.977-0.266-6.484,1.19-10.236
			c1.442-3.306,2.73-5.083,5.419-7.463c0.309-0.267,0.602-0.505,0.896-0.743c1.246-0.867,2.38-1.217,3.696-2.366
			c6.917-5.993,5.378-13.345,7.45-22.264c1.47-6.331,1.499-10.041,2.66-16.427c0.099-0.56,0.196-1.092,0.281-1.638
			c0.966-6.077,0.952-10.138,3.361-16.229c2.632-6.665,5.404-9.872,9.689-15.626c3.332-4.509,5.671-7.31,9.088-10.839
			c0.784-0.784,1.61-1.554,2.521-2.437l3.696,2.437l4.159,2.745c-1.399,0.532-2.184,0.882-3.486,1.611
			c-7.254,4.06-8.388,10.068-12.436,17.322c-3.375,6.049-4.719,9.773-7.127,16.256c-0.644,1.723-1.232,3.305-1.778,4.775
			c-2.227,6.007-3.725,10.656-4.803,17.994c-1.414,9.578-0.448,15.248-0.083,24.716c0.014,0.209,0.028,0.434,0.028,0.658
			c0.28,7.981,0.979,12.448,1.33,20.43c0.224,5.139,0.098,8.625,0.21,12.911c0.042,1.484,0.112,3.065,0.238,4.844
			c0.77,11.175,3.066,17.266,3.991,28.427c0.027,0.337,0.055,0.657,0.069,0.994c0.449,7.884-1.807,13.036,0.826,20.766
			c0.841,2.465,1.429,3.823,2.689,6.105c0.266-2.072,0.56-3.248,1.302-5.223c1.75-4.635,6.105-5.476,7.547-10.208
			c1.345-4.382,0.225-7.591-0.98-11.427c-0.448-1.413-0.896-2.885-1.231-4.564c-1.205-5.966-2.465-9.199-4.005-15.096
			c-1.4-5.363-7.576-9.956-3.543-13.765c0.322-0.308,0.644-0.589,0.967-0.854c1.415-1.038,2.842-1.401,4.802-1.373
			c1.457,0.028,2.521,0.477,3.403,1.316c1.904,1.736,2.829,4.873,4.621,7.52c2.632,3.851,4.047,6.218,5.293,10.712
			c1.358,4.846,0.994,7.842,0.896,12.884c-0.028,1.19-0.098,2.31-0.181,3.262c-0.28,3.067-0.785,5.504-1.149,9.158
			c-0.363,3.641-0.574,5.699-0.896,9.34c-0.658-1.903-3.501-2.619-4.972-1.26c-1.568,1.442,0.182,3.529,1.428,5.25
			c1.316,1.836,2.646,2.759,4.874,3.11c3.123,0.489,4.705-1.668,7.351-3.39c3.473-2.283,5.839-3.697,7.617-7.437
			c2.41-5.068-0.616-8.766-0.602-14.38c0-0.14,0-0.28,0.014-0.435c0.084-5.489,1.695-8.766,0.7-14.283
			c-0.91-4.957-2.688-7.421-4.774-11.985c-1.499-3.264-2.577-5.447-4.019-8.01c-0.519-0.926-1.079-1.976-1.736-3.081l-7.212-9.83
			c-2.479,0.924-4.719,0.477-6.666-1.345c-2.169-2.029-0.98-4.551-1.386-7.491c-0.686-4.817-0.616-7.813-0.77-12.295
			c-0.014-0.489-0.028-0.994-0.056-1.526c-0.323-7.268-0.182-11.385-0.449-18.651c-0.223-6.414-1.877-10.125-0.77-16.454
			c0.407-2.366,1.078-4.299,1.877-6.049c1.693-3.683,4.004-6.651,6.006-11.244c1.372-3.165,1.526-5.265,3.445-8.135
			c3.808-5.685,10.489-4.355,14.437-9.942c3.137-4.439,3.179-7.912,4.621-13.163c1.904-7.1,1.19-11.818,3.248-18.945
			c1.359-4.677,1.233-7.954,4.328-11.707c3.122-3.781,5.922-7.24,10.768-6.498c2.535,0.392,3.473,2.002,5.77,3.108
			c2.871,1.386,5.167,1.008,7.562,3.108c2.101,1.849,2.254,3.752,3.809,6.078c1.078,1.638,1.905,2.422,2.843,4.131
			c3.095,5.643,2.157,9.872,2.605,16.286c0.112,1.555,0.153,2.954,0.153,4.229c-0.014,3.935-0.405,7.127-0.405,11.833
			c0,6.959,1.358,10.964,0.322,17.839c-0.813,5.293-1.765,8.598-3.698,12.981c-0.35,0.813-0.756,1.652-1.19,2.563
			c-2.675,5.531-3.137,10.698-8.808,13.08c-1.708,0.728-2.842,1.554-4.649,1.092c-3.851-0.966,0.365-6.204,0.574-10.166
			c0.14-2.577,0.239-4.579,0.336-6.526c0.097-2.002,0.196-4.075,0.308-6.637c2.521,1.288,5.853-5.111,3.361-6.442
			c-2.143-1.134-3.473,1.625-5.335,3.165c-2.227,1.849-2.87,3.501-4.747,5.7l-2.353,2.744c-0.812-1.806-1.12-2.927-1.345-4.887
			c-0.335-2.954,0.154-4.677,0.897-7.548c1.19-4.663,4.033-6.44,5.573-10.992c1.106-3.235,1.33-5.195,1.975-8.557
			c0.392-2.072,0.882-3.22,0.882-5.321c0-1.582-0.112-2.674-0.448-3.92c-0.112-0.435-0.266-0.91-0.434-1.414l-12.645-7.814
			c0.406,2.479,0.504,3.921,0.406,6.442c-0.042,1.036-0.167,1.96-0.35,2.8c-0.588,2.815-1.736,4.943-2.072,8.346
			c-0.364,3.711,1.26,6.063-0.028,9.564c-1.415,3.836-4.887,4.299-7.072,7.757c-1.82,2.884-2.324,4.803-3.557,7.996
			c-1.316,3.389-2.296,6.231-3.067,9.018c-1.091,3.879-1.75,7.674-2.253,12.742c-0.658,6.372,0.251,10.027,0,16.425
			c-0.21,4.859-1.009,7.576-0.897,12.435c0.014,0.364,0.028,0.688,0.028,1.066c0.196,5.474,0.897,8.862,2.199,14.478
			c0.841,3.683,1.106,5.882,2.661,9.326c1.302,2.885,2.24,4.467,4.201,6.96l0.364-2.506c-0.07-3.292-0.098-5.153-0.126-8.459
			c-0.014-2.94,0.168-4.607,0-7.532c-0.168-2.97-0.91-4.595-0.882-7.563c0.014-1.819,0.014-3.277,0.224-4.677
			c0.182-1.344,0.532-2.688,1.232-4.256c1.428-3.222,2.813-4.958,5.643-7.059c0.224,3.978,0.224,6.245,0,10.222
			c-0.014,0.394-0.057,0.784-0.084,1.122c-0.28,2.631-0.867,4.396-0.798,7.322c0.084,3.319,0.953,5.125,1.331,8.431
			c0.533,4.719,0.238,7.436,0.588,12.153c0.182,2.354,0.519,4.202,0.826,6.063c0.379,2.283,0.686,4.482,0.546,7.407
			c-0.167,3.025-0.994,4.664-1.078,7.688c-0.098,3.473,0.238,5.463,0.896,8.879c0.687,3.569,1.26,5.558,2.59,8.947l3.011-5.097
			c-0.91-2.101-1.134-3.544-0.91-5.826c0.252-2.52,1.191-3.809,2.409-6.021c1.064-1.918,2.213-2.674,3.235-4.621
			c1.792-3.43,0.839-6.104,2.535-9.592c0.336-0.672,0.686-1.232,1.064-1.735c1.205-1.709,2.563-2.816,3.71-5
			c1.134-2.114,1.541-3.431,2.339-5.7c1.876-5.348,1.988-8.639,3.108-14.212c0.728-3.627,1.316-5.979,1.82-9.116
			c0.112-0.77,0.238-1.624,0.35-2.534c0.49-3.977-0.77-6.525,0.7-10.265c1.148-2.912,3.179-3.795,4.621-6.566
			c1.862-3.516,1.554-6.064,3.165-9.704c0.784-1.779,2.171-2.507,2.227-4.439c0.056-2.199-0.742-3.78-2.548-5.041
			c0.336-0.827,0.812-1.289,1.652-1.625c1.849-0.714,2.647,1.666,4.005,3.109c1.806,1.918,2.646,3.291,3.557,5.783
			c1.316,2.101,1.737,3.669,1.653,6.147c-0.084,2.802-1.876,4.007-2.549,6.722c-0.784,3.151,0.182,5.195-0.854,8.276
			c-1.063,3.207-3.347,4.229-4.565,7.394c-0.392,1.021-0.672,1.988-0.881,2.801c-0.463,1.934-0.575,3.683-0.659,6.119
			c-0.112,3.234-0.14,5.153,0.741,8.275c1.135,4.033,2.143,6.609,5.322,9.326c1.541,1.303,2.52,2.044,4.453,2.661
			c2.787,0.896,5.167-2.017,7.52-0.253c1.919,1.443,1.709,3.376,2.339,5.699c0.21,0.771,0.336,1.556,0.406,2.199
			c0.406,3.78-0.868,6.679-0.504,11.006c0.309,3.501-0.252,5.77,1.331,8.892c1.694,3.292,6.469,2.843,6.903,6.525
			c0.281,2.324,0.028,4.257-1.792,5.742c-2.717,2.24-5.266-1.584-8.655-2.507c-3.444-0.925-5.517-1.051-8.877-2.212
			c-2.311-0.8-4.032-0.701-5.783-2.395c-2.521-2.438-0.896-5.463-2.213-8.711c-1.709-4.187-3.165-6.455-6.218-9.774l1.737,5.294
			l1.932,10.46c-0.505,1.218-1.177,1.876-2.409,2.367c-1.988,0.812-3.542-0.309-5.265-1.583c-2.227-1.653-1.33-4.342-3.29-6.301
			c-1.555-1.555-2.731-2.256-4.818-2.913l-0.392,4.496c0.952,4.76,1.091,7.602,0.56,12.419c-0.126,1.247-0.35,2.353-0.63,3.403
			c-1.218,4.537-3.557,7.576-4.789,12.882c-0.602,2.563-0.434,4.132-1.302,6.609c-1.694,4.874-5.349,6.163-7.688,10.77
			c-0.7,1.399-1.288,2.646-1.792,3.892c-1.596,3.879-2.282,7.24-2.759,12.183c-0.504,5.196-0.238,8.221,0.644,13.387
			c0.602,3.544,1.863,5.743,2.661,8.669c0.21,0.783,0.392,1.639,0.503,2.604c0.854,6.651,0.491,10.739-1.54,17.139
			c-0.644-2.562-1.162-3.976-2.311-6.356c-2.128-4.426-5.111-5.825-7.463-10.124c-0.644-1.176-1.232-2.27-1.778-3.32
			c-2.325-4.535-3.682-8.288-3.654-14.044c0.027-4.229,0.504-6.694,2.029-10.628c-2.197,1.471-3.374,2.422-5.264,4.257
			c-2.829,2.744-3.333,5.308-6.246,7.954c-1.875,1.707-3.066,2.576-5.265,3.837c-0.924,0.519-1.568,0.686-2.618,0.686
			c-3.487,0.015-3.963-4.046-5.07-7.352c-1.274-3.809,1.331-6.497,0.042-10.292c-0.91-2.661-1.82-4.132-3.795-6.105
			c-0.364,1.946-0.672,3.039-1.372,4.9c-1.162,3.081-2.982,4.299-4.102,7.394c-1.302,3.628-1.555,5.896-1.541,9.746
			c0.014,3.026,0.435,4.72,1.023,7.688c0.139,0.701,0.293,1.401,0.448,2.003c1.61,6.554,4.242,10.349,6.735,17.196
			c2.674,7.366,4.467,11.426,6.666,18.946c2.871,9.718,4.228,15.332,5.629,25.359c0.379,2.66,0.896,4.606,1.134,6.721
			c0.14,1.274,0.182,2.619,0.028,4.216c-0.21,2.253,0.112,3.822-1.162,5.698c-1.932,2.87-5.391,1.231-8.36,3.01
			c-3.5,2.086-5.125,3.95-7.519,7.24c-1.918,2.633-4.439,4.158-3.921,7.38c0.49,3.024,2.731,4.271,5.448,5.67
			c2.871,1.472,5.349-0.475,8.206,1.023c1.876,0.995,2.002,3.249,4.103,3.586c2.758,0.445,3.795-2.229,5.867-4.104
			c2.031-1.821,3.305-2.857,4.621-5.265c1.274-2.354-0.756-6.933,1.904-6.611c1.975,0.225,2.157,2.324,3.039,4.104
			c1.372,2.802,1.638,4.761,1.4,7.884c-0.196,2.675-0.672,4.256-1.989,6.61c0.883,0.993,1.779,1.413,3.109,1.413
			c1.708,0.029,2.296-1.371,3.767-2.254c1.736-1.037,3.109-1.149,4.439-2.661c0.938-1.051,1.4-1.764,1.778-3.108
			c0.798-2.772-1.064-4.384-1.652-7.198c-0.421-2.044-1.919-3.374-1.008-5.237c1.105-2.239,3.626-1.566,6.104-1.889
			c1.765-0.239,2.997-0.896,4.565-0.057c1.68,0.883,1.975,2.324,2.563,4.117c0.91,2.787,0.742,4.803-0.421,7.478
			c-1.021,2.38-2.758,2.983-4.368,4.998c-1.303,1.626-2.633,2.269-3.179,4.258c-0.798,2.869,2.843,4.452,2.115,7.351
			c-0.686,2.787-3.108,3.235-5.014,5.392c-1.33,1.513-2.072,2.396-3.347,3.963l2.759,3.908c2.437-0.435,3.851-1.093,5.769-2.661
			c2.255-1.836,1.779-4.51,4.146-6.218c1.988-1.428,3.528-2.407,5.951-1.989c1.373,0.238,2.171,0.632,3.235,1.541
			c2.045,1.778,0.364,4.606,2.199,6.597c1.582,1.735,3.025,2.701,5.377,2.716c2.059,0.015,2.829-2.283,4.873-2.045
			c1.821,0.21,2.549,1.372,3.977,2.506c1.806,1.442,2.745,2.407,4.089,4.3c0.854-2.128,1.247-3.389,1.681-5.63
			c0.42-2.058-0.28-3.444,0.602-5.334c0.953-2.031,2.633-2.354,4.076-4.076c2.282-2.716,3.935-4.27,4.844-7.7
			c0.701-2.591,0.756-4.244,0.252-6.877c0.645,1.906,1.036,2.969,1.792,4.845c1.4,3.487,2.646,5.266,4.117,8.726
			c1.442,3.416,1.176,5.896,3.347,8.92c2.184,3.052,4.648,3.584,7.463,6.062c1.583,1.402,2.45,2.213,3.963,3.67
			c-2.241-2.703-3.095-4.872-3.291-8.373c-0.112-2.214,0.672-3.418,0.813-5.63c0.223-3.291-0.406-5.14-0.449-8.444
			c-0.028-3.515,0.672-5.517,0.323-9.004c-0.504-5.181-3.445-7.576-3.865-12.757c-0.224-2.814,0.35-4.425,0.267-7.239
			c-0.168-5.11-7.016-11.72-2.059-12.953c1.19-0.294,1.96-0.294,3.15,0c3.473,0.854,3.291,4.552,4.859,7.759
			c1.918,3.948,2.212,6.482,3.558,10.656c1.82,5.685,2.38,9.046,4.438,14.66c1.553,4.229,2.352,6.666,4.438,10.656
			c2.087,4.005,3.641,6.063,6.217,9.773c2.465,3.559,3.949,5.532,6.68,8.908c0.672-2.004,0.883-3.25,0.868-5.363
			c-0.027-4.889-4.299-6.68-4.888-11.539c-0.237-2.073-0.237-3.263,0-5.336c2.563,2.339,3.796,4.005,5.336,7.113
			c1.274,2.604,1.792,4.229,2.212,7.101c1.401-3.978,1.82-6.441,1.779-10.657c-0.043-5.335-1.779-8.149-3.109-13.316
			c-1.428-5.587-3.501-8.486-3.99-14.214c-0.351-3.976-1.988-7.057,0.434-10.222c0.98-1.26,1.736-1.876,3.15-2.563l3.067,0.785
			c-0.378,2.759-0.477,4.339-0.436,7.112c0.099,6.428,1.598,9.942,3.193,16.175c1.778,6.973,2.758,10.991,5.686,17.573
			c2.281,5.139,3.823,7.953,6.904,12.658c0.769-6.104,0.614-9.76-0.688-15.768c-1.134-5.25-4.479-7.52-4.887-12.884
			c-0.322-4.367,0.617-6.859,1.778-11.09c1.497-5.46,3.192-8.288,5.783-13.33c1.653-3.221,2.088-6.175,3.865-8.527
			c0.646-0.854,1.441-1.694,2.548-2.395c1.807-1.134,3.166-2.815,5.125-1.96c1.724,0.77,1.724,2.449,2.185,4.313
			c0.014,0.042,0.027,0.084,0.042,0.126c1.037,3.906-0.518,6.384-1.777,10.222c-1.751,5.307-5.321,7.141-7.114,12.436
			c-2.423,7.225-2.058,11.944-1.134,19.505c0.742,6.036,2.52,9.173,4.088,15.04l2.941,11.076c1.106-1.609,1.681-2.563,2.549-4.328
			c2.956-5.964,1.904-10.264,3.626-16.69c2.297-8.556,4.146-13.219,7.254-21.494c3.361-8.977,4.033-14.774,9.438-22.685
			c0.784-1.149,1.514-2.186,2.228-3.165c2.506-3.319,4.803-5.615,8.515-8.766c0.656-0.631,1.133-0.925,1.987-1.247
			c1.387-0.49,2.38-0.49,3.752,0c-2.771,3.486-4.816,6.651-6.259,10.013c-1.903,4.396-2.772,9.004-2.982,14.912
			c-0.266,7.521,0.841,11.987,3.752,18.933c2.396,5.727,4.354,8.85,8.487,13.499c-1.85-6.204-2.198-10.082-1.499-16.496
			c0.91-8.289,4.005-12.462,7.688-19.925c2.17-4.44,4.046-7.548,6.174-10.866c1.498-2.312,3.123-4.678,5.069-7.563
			c4.831-7.154,7.758-11.075,13.247-17.741c0.994,2.479,1.289,4.061,1.247,6.736c-0.084,5.895-4.272,8.163-6.751,13.498
			c-0.868,1.89-1.763,3.515-2.604,5.014c-2.212,3.977-4.144,7.309-4.886,12.658c-1.078,7.772-0.394,12.743,2.744,19.94
			c3.837-4.649,5.936-7.338,9.494-12.183c5.361-7.296,5.46-14.158,12.926-19.24c0.685-0.461,1.302-0.91,1.874-1.218
			c1.767-1.064,3.306-1.75,5.631-2.535l0.195,2.577l0.546,7.169c0.505,6.498,1.724,10.167,1.261,16.679
			c-0.238,3.332-0.518,5.221-1.261,8.499c1.442-0.755,2.227-1.261,3.501-2.254c4.396-3.404,4.789-7.282,8.191-11.679
			c2.787-3.612,4.887-5.252,7.491-9.004c2.451-3.515,3.599-5.842,5.477-9.467c0.099-0.168,0.183-0.336,0.266-0.519
			c2.688-5.25,3.473-8.526,5.993-13.849c2.113-4.48,3.389-6.974,5.756-11.328c1.735,0.967,2.633,1.819,3.683,3.502
			c1.442,2.281,1.05,4.088,1.499,6.748c0.727,4.285,0.825,6.75,0.951,11.091c0.041,1.709-0.154,3.08-0.295,4.411
			c-0.154,1.513-0.252,3.025,0.098,4.914c0.715,3.823,1.64,6.009,3.894,9.173c1.653-3.305,2.465-5.237,3.655-8.738
			c0.729-2.071,1.021-3.697,1.414-5.377c0.266-1.093,0.547-2.227,1.036-3.543c0.993-2.786,1.652-4.313,2.997-6.932l2.492-11.497
			l2.001-4.998c0-1.527,0.533-2.591,1.752-3.5c2.73-2.06,3.92,3.836,5.335,6.944c1.918,4.216,2.268,7.254,1.344,11.791
			c1.653-0.211,2.62-0.575,4.006-1.498c4.033-2.675,2.981-7.155,3.248-11.987c0.21-4.004-2.044-6.259-1.261-10.181
			c0.35-1.721,0.701-2.702,1.499-4.257c0.727,0,1.148,0.057,1.834,0.253c3.053,0.868,4.973,3.81,4.664,6.861
			c0.476-2.297,1.007-3.864,2.099-6.231c1.33-2.87,2.689-4.159,4.342-6.848c1.598-2.576,2.31-4.145,4.005-6.665
			c2.058-3.066,4.146-4.215,5.77-7.547c1.497-3.096,1.708-5.406,2.059-8.39c0.084-0.783,0.182-1.609,0.336-2.506
			c0.925-6.035-2.969-10.979,0.994-15.613c2.773-3.247,5.698-5.082,9.927-4.578c3.824,0.462,6.021,2.408,8.082,5.644
			c2.604,4.089-3.865,13.806,0.769,12.406c1.177-0.35,1.836-0.742,2.702-1.625c0.141-3.794,0.141-5.951,0-9.76
			c-0.224-5.993-0.601-9.382-1.441-15.319c-0.141-0.98-0.267-1.903-0.405-2.815c-0.743-4.592-1.526-7.798-2.591-12.951
			c-1.597-7.66-2.66-11.931-4.468-19.535l-0.407-1.666l-1.679-6.974c2.407,0.574,3.767,1.26,5.656,2.857
			c1.527,1.288,2.2,2.591,2.885,4.089c0.435,0.938,0.883,1.932,1.556,3.01c2.408,3.824,4.984,5.433,6.23,9.774
			c1.021,3.613,0.268,5.867,0.363,9.606c0.029,1.288-0.699,2.253,0.07,3.277c1.247,1.623,3.347-0.393,5.015-1.569
			c2.057-1.484,3.022-3.038,3.43-5.531c-0.562-2.703-0.994-4.229-1.932-6.819c-1.849-5.125-4.817-7.688-7.17-11.721
			c-0.658-1.134-1.275-2.324-1.806-3.767c-1.695-4.634-2.172-7.449-2.857-12.337c-0.225-1.554-0.813-2.465-0.449-4.004
			c1.051-4.468,7.003,2.155,10.784,4.774c1.875,1.288,2.868,2.143,4.466,3.753c0.519-2.184,0.589-3.529,0.28-5.755
			c-0.393-2.802-1.373-4.229-2.661-6.764c-1.682-3.347-2.982-5.068-5.321-7.996c-0.657-0.826-1.33-1.54-2.015-2.184
			c-4.525-4.286-9.537-5.462-13.528-11.133c-2.001-2.856-4.999-4.411-4.312-7.828c0.32-1.638,0.6-2.982,2.1-3.724
			c2.001-1.009,3.36,1.105,5.321,2.212c3.206,1.834,4.438,3.682,7.098,6.217c3.11,2.968,4.818,4.705,7.562,8.011
			c1.976,2.38,3.32,4.27,4.691,6.286c0.869,1.304,1.766,2.689,2.858,4.368c1.848,2.843,2.855,4.482,4.564,7.422l0.755-6.091
			C564.61,366.289,564.344,364.58,563.895,362.831z M111.474,275.886c1.484-1.89,2.423-4.48,4.761-3.935
			c2.185,0.518,2.408,2.843,2.787,5.055c0.56,3.304-0.798,7.184-3.292,9.046c-1.05,0.77-2.296,1.162-3.696,0.967
			c-1.162-0.154-2.003-0.393-2.815-0.911c-0.265-0.196-0.532-0.476-0.812-0.756C105.69,282.579,109.079,278.938,111.474,275.886z
			 M119.399,359.875c1.974-1.021,3.123,0.616,3.893,2.956c0.603,1.849,0.967,4.115,1.302,5.838c0.588,3.095,0.953,5.32-0.63,8.053
			c-1.078,1.848-3.01,1.848-4.075,3.725c-1.597,2.814-1.862,5.461-0.308,8.29c0.7,1.288,1.302,1.96,2.506,2.786l-7.002-0.28
			c-0.84-2.464-1.273-3.878-1.974-6.386c-1.162-4.089-0.896-6.679-2.479-10.629c-0.392-0.993-0.644-1.54-1.106-2.491l7.547-5.293
			c-0.518-1.19-0.56-2.437-0.196-3.6C117.271,361.612,118.139,360.533,119.399,359.875z M120.912,308.163
			c-3.5,7.617-7.547,11.035-14.171,16.187c-2.423,1.878-4.397,3.291-6.484,4.453c-2.101,1.205-4.298,2.27-7.155,3.375
			c-3.277,1.261-5.209,1.82-8.667,2.507c1.344-2.325,2.464-4.174,3.668-5.896c1.415-2.059,2.928-3.977,5-6.386
			c5.111-5.979,9.13-8.233,14.914-13.568c3.668-3.39,6.806-4.453,9.382-8.724c1.638-2.702,2.311-4.453,2.927-7.547
			c1.302-1.289,2.254-1.877,3.991-2.479C131.092,287.732,123.908,301.638,120.912,308.163z M216.16,114.824
			c-1.106,4.971-1.652,7.912-3.963,12.449c-2.366,4.677-5.769,6.05-7.996,10.81c-1.751,3.683-0.154,8.066-0.546,11.385
			c-0.195,1.652-0.868,3.024-2.688,3.934c-2.493,1.233-4.313,0.799-7.085,0.687c-5.574-0.238-8.711-2.016-13.429-4.593
			c-0.267-0.14-0.533-0.28-0.799-0.435c-5.139-2.772-6.806-6.259-11.944-9.046c-6.049-3.291-9.915-5.783-16.804-5.489
			c-3.472,0.139-6.063-0.322-8.695,1.932c-3.516,2.997-0.197,7.505-2.268,11.637c-0.267,0.532-0.561,1.049-0.883,1.428
			c-2.703,3.655-7.1,4.159-9.466,8.598c-1.555,2.913-5.293,6.161-2.576,8.052c1.441,1.008,2.772,0.07,4.523,0.322
			c3.514,0.505,5.376,1.387,8.723,2.591c2.815,1.008,4.354,1.68,7.086,2.912c3.865,1.723,6.063,2.675,9.704,4.846
			c3.417,2.044,5.153,3.501,8.402,5.825c4.089,2.926,6.399,4.565,10.32,7.729c0.839,0.687,1.666,1.19,2.436,1.736
			c1.975,1.289,3.711,2.311,5.112,4.706c2.422,4.145,2.8,7.66,1.344,12.21c-2.464-2.857-4.006-4.34-6.959-6.694
			c-2.647-2.114-4.258-3.192-7.226-4.831c0.014,4.453-0.294,7.03-1.373,11.356c-1.19,4.705-2.226,7.324-4.621,11.553
			c-0.63-8.977-1.652-14.087-4.537-22.602c-0.686-2.043-1.232-3.907-1.764-5.657c-1.415-4.551-2.814-8.303-6.638-12.421
			c-4.536-4.901-9.493-13.443-14.52-9.06c-2.605,2.283-1.639,5.181-2.912,8.402c-0.925,2.381-1.639,3.627-2.549,6.007
			c-0.925,2.422,0.363,5.741-2.171,6.316c-1.05,0.224-1.653-0.252-2.716-0.378c-7.1-0.841-11.356,1.96-18.33,0.378
			c-2.479-0.575-4.384-0.224-6.204-2.003c-2.297-2.24-1.176-4.872-1.625-8.051c-0.462-3.375-2.408-5.812-0.644-8.724
			c1.666-2.745,4.747-1.807,7.436-3.557c2.325-1.513,5.825-1.778,5.503-4.523c-0.336-2.689-4.019-1.569-6.147-3.234
			c-1.401-1.106-1.484-2.941-3.235-3.207c-2.422-0.364-4.635,3.179-3.95,5.49c-0.518-1.023-0.755-1.933-0.896-3.263
			c-0.098-0.868,0-1.358,0-2.227c-0.014-3.179-1.302-6.007-1.89-8.639c-0.532-2.297-0.532-4.454,1.247-6.554
			c0.854-1.022,1.525-1.442,2.576-2.269c3.053-2.394,5.223-3.123,8.695-4.873c2.283-1.134,4.986-0.378,5.924-2.745
			c0.532-1.33,0.49-2.352-0.07-3.668c-0.91-2.129-3.599-1.205-5.167-2.913c-1.26-1.358-1.82-2.395-2.268-4.201
			c-0.616-2.465-1.106-4.635,0.645-6.47c1.063-1.091,2.156-1.008,3.556-1.611c6.399-2.744,10.292-3.556,16.971-5.474
			c2.296-0.659,4.034-1.345,5.826-1.919c1.582-0.489,3.207-0.84,5.308-1.008c3.766-0.308,5.978-0.168,9.675,0.644l0.295,0.364
			l6.819,8.36l2.185-1.443c-0.308-3.277,1.862-6.133,5.083-6.735c4.508-0.84,3.305,6.399,5.979,10.124
			c3.486,4.845,6.204,6.987,10.32,11.314c3.025,3.179,4.76,4.943,7.883,8.039c0.659-3.095,0.924-4.888,1.177-8.039
			c0.504-6.553,0.28-10.363-0.98-16.818l1.372-4.803l3.501-12.28c1.946-0.532,3.291-0.448,5.152,0.307
			c3.669,1.471,3.025,5.378,4.958,8.837l1.75,3.136l4.047,7.254c0.14-2.899,0.363-4.999,0.84-7.268
			c0.251-1.205,0.574-2.45,0.98-3.907c0.644-2.282,1.092-3.542,2.002-5.728c0.925-0.238,1.527-0.238,2.45,0
			c3.151,0.827,1.96,4.816,2.199,8.08c0.042,0.561,0.056,1.079,0.056,1.568C217.63,109.643,216.86,111.673,216.16,114.824z
			 M257.16,465.416c-0.224,1.12-0.546,2.282-0.952,3.529c-1.288,3.92-1.764,7.071-5.335,9.115c-2.604,1.484-5.279-0.756-7.589,1.148
			c-2.227,1.82-1.918,4.103-2.675,6.889c-1.386,5.153-0.476,8.332-0.854,13.668c-0.392,5.685,4.48,15.586-1.135,14.577
			c-1.512-0.267-2.395-0.701-3.556-1.723c-0.896,0.896-1.611,1.274-2.843,1.539c-4.005,0.869,1.442-6.273,1.961-10.347
			c0.742-5.896-0.378-9.354,0.587-15.208c0.826-5.04,2.213-7.688,3.529-12.63c1.106-4.23,2.184-7.113,2.982-10.546
			c0.335-1.483,0.616-3.107,0.826-4.956c0.91-7.827-0.84-12.308-0.882-20.192c-0.014-3.599,0-5.923,0.098-9.06
			c0.028-0.588,0.042-1.232,0.07-1.904l1.651-3.054c0.687,0.099,1.079,0.212,1.709,0.506c1.765,0.825,2.254,2.128,3.235,3.821
			c0.125,0.21,0.224,0.42,0.322,0.672c1.666,3.865-1.596,7.619,0.854,11.371c1.219,1.863,2.786,2.185,4.103,3.991
			c1.653,2.255,2.143,3.838,2.941,6.512C257.608,457.784,258,461.271,257.16,465.416z M490.631,141.892
			c3.529-1.387,6.554-0.868,9.606,1.372c1.638,1.205,2.072,2.408,3.276,4.047c0.533,0.715,0.91,1.386,1.246,2.129
			c0.84,1.764,1.345,3.402,3.179,4.803c2.759,2.086,5.77,0.28,8.599,2.31c2.464,1.765,3.57,3.417,4.605,6.274
			c1.345,3.64,0.098,6.076-0.099,9.956c-0.166,3.165,0.253,5.083-0.685,8.108c-1.148,3.725-1.85,6.763-5.363,8.43
			c-2.058,0.98-3.809,1.877-5.783,0.742c-2.296-1.345-2.073-4.004-1.653-6.637c0.365-2.283,1.961-3.066,2.886-5.195
			c1.134-2.59,2.03-4.103,2.114-6.931c0.099-3.109-0.686-4.943-2.114-7.702c-0.757-1.442-0.687-3.361-2.31-3.459
			c-2.046-0.14,0,3.235-0.576,5.195c-0.615,2.031-0.56,4.005-2.506,4.817c-1.792,0.728-2.898-1.371-4.816-1.162
			c-2.003,0.21-2.633,2.646-4.622,2.311c-0.992-0.168-1.567-0.477-2.31-1.149c-1.918-1.792-0.449-4.159,0-6.75
			c0.491-2.73,1.709-4.004,2.506-6.665c0.421-1.4,0.771-2.185,0.966-3.655c0.183-1.4,0.407-2.31,0.127-3.584
			c-0.043-0.14-0.084-0.294-0.127-0.462c-0.53-1.694-1.218-2.703-2.716-3.655c-1.413-0.882-3.081,0.336-4.172-0.924
			c-0.49-0.575-0.7-1.021-0.813-1.764C489.652,142.326,490.002,142.144,490.631,141.892z M448.231,207.523
			c0.225-0.266,0.421-0.406,0.757-0.49c3.106-0.266,5.193,0.351,7.688,2.24c1.413,1.093,1.735,2.227,2.996,3.501
			c1.441,1.484,2.17,2.507,3.99,3.501c1.694,0.924,2.899,0.881,4.747,1.441c1.667,0.491,3.081-0.042,4.257,1.248
			c1.569,1.722,1.681,4.676-0.253,5.992c-0.544,0.365-0.937,0.421-1.58,0.603c-3.545,1.009-6.149-0.224-9.158-2.352
			c-2.27-1.597-2.703-3.389-4.51-5.49c-1.681-1.974-2.591-3.122-4.425-4.943c-1.232-1.218-2.241-1.596-3.249-2.996
			C448.904,208.966,447.629,208.322,448.231,207.523z M441.244,218.459c0.868,0.21,1.093,0.883,1.75,1.499
			c2.857,2.66,3.527,4.97,5.994,7.996c1.791,2.197,2.492,3.794,4.747,5.503c1.4,1.063,2.98,0.755,3.935,2.239
			c0.698,1.093,0.559,1.961,0.741,3.25c0.21,1.4,0.645,3.011,0.924,4.495c0.547,2.745,0.617,5.209-1.917,5.685
			c-3.095,0.589-3.754-3.038-5.575-5.713c-0.195-0.266-0.391-0.476-0.601-0.714c-3.557-3.991-6.512-5.797-8.501-10.74
			c-1.261-3.137-1.609-5.125-1.75-8.5C440.907,221.513,439.338,217.998,441.244,218.459z M383.173,74.173
			c0.813-1.988,2.897-1.96,5.042-2.198c2.337-0.252,3.863,0.084,5.865,1.302c1.078,1.484,0.659,3.626-0.896,4.593
			c-1.625,1.022-3.024-2.535-4.676-1.555c-1.234,0.729-0.323,2.59-1.555,3.333C384.742,81.007,382.177,76.582,383.173,74.173z
			 M374.701,71.723c1.442,0.126,2.254,0.63,3.348,1.555c1.721,1.47,2.029,3.038,2.45,5.265c0.658,3.542,0.377,6.302-2.002,9.019
			c-1.472,1.693-2.662,3.094-4.902,3.01c-3.808-0.154-2.97-5.545-2.815-9.354C370.948,77.212,370.709,71.373,374.701,71.723z
			 M235.05,84.774c0.784-1.247,1.526-1.876,2.885-2.437l2.101-1.568c-0.225,0.336-0.351,0.533-0.533,0.896
			c-3.15,5.896,10.391-1.274,16.916-2.675c5.686-1.218,8.71-2.618,14.395-3.795c2.689-0.546,4.174-1.022,6.903-1.246
			c6.722-0.547,10.433,1.624,17.07,2.814c0.952,0.168,1.47,0.435,2.451,0.449c4.031,0.042,4.521-4.411,7.576-7.043
			c4.283-3.711,6.832-5.671,11.481-8.906c0,0,4.971,0.097,8.021,0.881c1.779,0.462,2.663,1.163,4.454,1.555
			c4.957,1.105,9.145,1.834,12.912-1.555c0.378-0.322,0.532-0.56,0.908-0.881c3.194-2.843,6.568-1.288,10.812-1.793
			c3.206-0.364,5.125-1.456,8.247-0.659c0.981,0.239,1.54,0.435,2.45,0.883c4.817,2.45,10.797,11.342,5.573,12.701
			c-1.805,0.462-2.898-0.631-4.746-0.448c-2.155,0.225-4.145-0.07-5.279,1.778c-0.938,1.527,0.238,2.815,0,4.593
			c-0.196,1.414-0.407,2.213-0.896,3.558c-1.037,2.912-1.316,5.685-4.229,6.693c-1.723,0.587-3.012,0.531-4.677-0.225
			c-3.46-1.554-2.425-5.573-2.674-9.354c-0.196-3.024,2.016-4.957,0.782-7.715c-1.133-2.549-2.814-4.649-5.601-4.453
			c-0.699,0.056-1.092,0.224-1.777,0.447c-3.544,1.205-4.859,3.543-6.905,6.68c-1.805,2.8,0.084,7.029-3.12,7.926
			c-1.514,0.433-2.941,0.728-4.006-0.435c-0.785-0.854-0.379-1.778-0.673-2.898c-0.883-3.501-1.527-5.461-2.899-8.821
			c0,0-6.832-1.373-8.457,1.554c-0.309,0.574-0.336,0.966-0.573,1.569c-1.178,2.968-1.961,4.634-3.796,7.253
			c-0.488,0.714-0.741,1.149-1.33,1.779c-1.455,1.581-2.493,2.968-4.635,2.968c-0.91,0.013-1.4-0.294-2.269-0.504
			c-3.543-0.883-5.503-4.229-8.906-2.899c-1.834,0.714-2.381,1.96-3.795,3.333c-0.434,0.434-0.742,0.63-1.119,1.12
			c-2.354,3.165,7.855,5.238,5.573,8.458c-0.938,1.345-2.086,1.499-3.558,2.227c-1.008,0.504-1.582,0.826-2.674,1.12
			c-4.622,1.218-8.01-0.952-11.497-4.229c-2.493-2.353-1.4-6.007-4.453-7.576c-0.714-0.364-1.148-0.504-1.932-0.7
			c-4.257-1.12-7.898,0.028-10.768,3.375l-0.883,0.671c-4.299,3.024-7.94,4.523-13.065,3.333
			C240.091,91.468,232.432,88.905,235.05,84.774z M257.832,272.273c-0.854,3.739-1.526,7.267-5.223,8.332
			c-4.747,1.358-7.688-4.019-9.186-8.738c-1.219-3.865,1.078-6.301,1.05-10.362c-0.028-6.665-2.269-10.194-3.08-16.803
			c-0.056-0.434-0.098-0.854-0.154-1.288c-0.477-4.13-0.672-6.806-0.827-11.287c3.347,4.243,5.223,6.988,7.702,11.287
			c0.294,0.504,0.602,1.036,0.91,1.583c3.725,6.609,6.357,10.362,7.884,17.783C257.65,266.434,258.659,268.646,257.832,272.273z
			 M259.177,211.346c-2.156,3.137-5.671,1.792-9.187,3.221c-4.312,1.736-9.969,9.689-10.782,5.11
			c-0.196-1.078,0.028-1.722,0.14-2.814c0.673-6.497,3.991-9.41,6.554-15.417c1.568-3.684,3.039-6.4,4.369-9.271
			c1.064-2.296,2.044-4.691,2.912-7.785c3.627-12.757,3.039-20.794,1.457-33.958c-0.028-0.322-0.07-0.63-0.112-0.952
			c-0.742-5.742-1.764-9.172-3.08-15.068c-0.658-2.913-3.305-4.901-1.75-7.45c0.756-1.246,1.484-2.015,2.913-2.338
			c2.787-0.63,2.829,3.543,5.111,5.251c2.269,1.68,3.627,2.899,6.414,3.361c4.131,0.7,6.021-3.011,10.195-3.361
			c1.47-0.126,2.31-0.07,3.794,0c5.504,0.224,8.542,1.302,13.836,2.829c2.422,0.686,3.696,1.372,6.133,1.988
			c3.556,0.924,5.657,1.092,9.327,1.47c1.469,0.14,2.352-0.07,3.779,0.281c5.267,1.316,6.428,5.979,8.542,10.978
			c0.309,0.7,0.519,1.344,0.686,2.031c0.869,3.458,0.154,6.314,1.428,10.166c0.967,2.955,1.472,4.704,3.194,7.281
			c0.728,1.079,1.021,1.849,2.044,2.632c3.78,2.857,8.192-2.534,10.012-6.917c2.157-5.251-4.214-8.01-5.812-13.134
			c-0.141-0.462-0.252-1.009-0.308-1.513c-0.337-2.997-2.24-5.951,0.195-7.743c1.682-1.218,3.445-1.162,5.321-0.281
			c2.928,1.373,3.249,4.706,2.605,7.871c-0.154,0.7-0.462,1.204-0.77,1.667c-0.364,0.546-0.743,1.092-0.911,1.889
			c-0.7,3.053,0.238,5.14,1.905,7.8c1.498,2.396,2.828,3.669,5.405,4.832c1.092,0.476,1.792,0.504,2.91,0.868
			c1.851,0.603,2.858,2.451,4.665,1.75c2.465-0.966,0.532-4.131,0.391-6.764c-0.14-2.926-0.126-4.705-1.261-7.393
			c-0.572-1.358-1.553-2.199-2.506-2.982c-1.19-0.981-2.352-1.919-2.744-3.711c-0.434-2.002-0.07-3.234,0.294-5.237
			c0.294-1.638,0.21-2.745,1.161-4.088c0.478-0.645,0.855-0.925,1.458-1.457c3.515-3.081,7.198-5.896,11.37-3.782
			c0.868,0.435,1.316,0.785,2.031,1.457c1.133,1.037,1.386,1.974,2.338,3.207c2.563,3.333,4.466,4.831,7.211,8.023
			c1.471,1.737,2.521,2.563,3.725,4.495c0.253,0.393,0.421,0.701,0.589,1.065c0.21,0.406,0.407,0.812,0.699,1.33
			c0.799,1.385,0.631,3.584,2.214,3.43c1.513-0.14,1.288-2.045,1.735-3.487c0.154-0.448,0.238-0.868,0.308-1.246
			c0.365-2.466-0.601-4.37-0.587-7.212c0-3.067-0.238-4.831,0.279-7.856c0.182-1.036,0.182-1.666,0.589-2.632
			c1.414-3.347,4.563-5.111,8.164-4.523c0,0,4.186,4.873,6.414,8.317c1.679,2.633,2.547,4.188,3.879,7.016
			c0,0,2.604-4.104,3.556-7.016c0.266-0.784,0.252-1.289,0.588-2.044c1.202-2.787,3.08-4.747,6.119-4.831
			c4.676-0.112,2.772,6.805,4.957,10.95c0.658,1.26,1.037,1.974,1.735,3.207c1.555,2.689,2.887,4.746,4.327,6.666
			c1.374,1.833,2.844,3.626,4.705,5.867c1.709,2.044,4.02,2.493,4.538,5.111c0.336,1.681,0.462,2.997-0.589,4.369
			c-1.009,1.345-2.366,1.148-3.949,1.75c-4.019,1.512-6.539,1.568-10.768,2.324c-5.194,0.924-8.163,1.274-13.415,1.75
			c-3.683,0.336-6.007,1.877-9.479,0.589c-2.072-0.785-2.744-2.129-4.663-3.208c-3.879-2.197-6.596-2.254-10.782-3.794l-4.664-1.75
			c0,0-2.506,1.092-3.654,2.338c-4.55,4.887,7.24,7.66,10.657,13.401c1.372,2.31,1.666,3.907,3.205,6.12
			c2.787,4.018,5.897,5.433,9.453,7.827c0.826,0.574,1.667,1.19,2.534,1.905c4.062,3.389,6.777,4.873,10.335,8.78
			c3.29,3.612,4.3,6.316,7.267,10.194c4.58,6.007,8.179,8.598,12.561,14.746c4.074,5.685,5.35,10.529,8.22,15.599
			c0.953,1.695,2.086,3.431,3.557,5.237c4.005,4.93,6.666,7.436,11.651,11.357c3.502,2.772,5.952,3.697,9.494,6.414
			c5.768,4.453,10.529,6.231,13.54,12.854c1.12,2.437,1.68,4.551,1.89,6.75c0.309,3.136-0.097,6.231-0.546,10.124
			c-0.74,6.315-2.086,9.845-4.886,15.544c-3.544,7.226-10.054,8.752-12.435,16.439c-0.069,0.209-0.125,0.42-0.168,0.644
			c-0.784,3.81,1.751,7.338-1.135,10.11c-2.898,2.787-6.301,1.989-10.25,1.233c-5.14-0.98-6.146-5.841-11.104-7.549
			c-1.904-0.658-3.066-0.742-5.042-1.204c-1.456-0.321-2.45-0.083-3.738-0.84c-0.839-0.476-1.414-1.05-1.848-1.751
			c-0.603-0.938-0.939-2.002-1.357-3.304c-1.106-3.487-0.393-5.91,0.896-9.342c0.839-2.253,3.053-2.91,3.108-5.32
			c0.015-0.979-0.099-1.554-0.448-2.464c5.489-1.246,8.569-2.031,13.988-3.586c7.239-2.072,12.309-1.54,18.345-6.049
			c3.206-2.394,5.712-3.683,7.07-7.449c0.673-1.849,0.897-3.571,0.757-5.182c-0.238-2.759-1.512-5.349-3.487-7.967
			c-1.96-2.619-3.752-3.571-6.622-5.14c-5.293-2.913-9.172-2.395-15.18-3.192c-9.858-1.317-15.6-1.302-25.499-0.308
			c-10.782,1.078-16.369,4.593-27.097,6.076c-5.53,0.771-8.696,0.897-14.255,1.359c-2.855,0.239-5.769,2.969-7.322,0.56
			c-0.785-1.218-0.295-2.24-0.407-3.683c-0.392-5.35,0.547-8.359,0.827-13.708c0.334-6.651,1.035-10.867,0.951-16.692
			c-0.015-1.107-0.056-2.311-0.14-3.557c-0.463-7.085-0.854-11.174-2.856-17.979c-1.288-4.368-1.498-7.211-4.187-10.88
			c-2.13-2.885-3.361-6.931-6.848-6.105c-1.765,0.42-2.437,1.541-3.683,2.857c-1.862,1.989-0.771,5.839-3.488,6.063
			c-2.072,0.168-3.457-1.148-4.409-2.997c-1.568-3.066,1.512-5.405,3.809-7.968c1.945-2.156,4.145-2.1,6.133-4.215
			c2.003-2.115,2.311-4.285,3.264-6.511c0.307-0.771,0.685-1.54,1.232-2.338c1.302-1.947,2.995-2.507,3.682-4.733
			c0.476-1.554,0.295-2.535,0.211-4.159c-0.169-3.277-0.351-5.391-2.145-8.15c-0.923-1.414-1.273-2.758-2.911-3.207
			c-2.632-0.714-2.94,3.095-4.943,4.958c-2.199,2.016-3.038,3.892-5.84,4.942c-3.137,1.176-5.25-0.084-8.611-0.294
			c-5.194-0.308-8.135-0.518-13.274-1.302c-4.117-0.63-6.329-1.624-10.476-2.031c-7.826-0.783-12.476-0.293-20.107,1.598
			c-4.872,1.203-7.799,1.778-12.099,4.368c-4.999,2.984-7.8,6.246-10.348,10.391c-1.302,2.072-2.52,4.368-3.935,6.958
			c-1.568,2.857-2.38,4.509-3.5,7.576C259.975,208.476,260.254,209.792,259.177,211.346z M345.21,250.261
			c-0.225,1.428-0.896,2.073-1.61,3.347c-1.608,2.87-2.071,5.614-5.194,6.679c-2.115,0.714-4.383,1.47-5.727-0.322
			c-1.359-1.82,0.825-3.472,1.498-5.657c1.036-3.36,0.826-5.825,3.163-8.443c0.869-0.98,1.443-1.89,2.409-2.451
			c0.321-0.168,0.686-0.238,1.121-0.294c0.699-0.112,1.331,0.042,1.875,0.322C344.694,244.505,345.617,247.74,345.21,250.261z
			 M328.954,200.578c-1.078,1.218-2.212,1.26-3.57,2.157c-1.709,1.148-2.773,1.708-4.215,3.165c-1.527,1.526-1.457,3.291-3.25,4.481
			c-3.542,2.324-6.623-0.771-10.683-2.003c-4.328-1.288-8.095-0.854-10.629-4.593c-1.064-1.568-1.092-2.773-1.75-4.565
			c-0.715-1.918-1.961-2.898-1.766-4.929c0.084-0.743,0.197-1.47,0.421-2.115c0.405-1.134,1.12-2.044,2.394-2.451
			c1.989-0.63,3.081,1.12,4.93,2.101c0.224,0.126,0.421,0.237,0.615,0.35c1.177,0.714,1.92,1.358,3.25,2.115
			c1.414,0.812,2.143,1.513,3.725,1.918c2.563,0.672,4.104-0.63,6.736-0.7c2.072-0.056,3.234,0.154,5.306,0.196
			c2.045,0.029,3.222-0.083,5.265,0c1.934,0.07,3.908-1.288,4.929,0.351C331.657,197.652,330.2,199.164,328.954,200.578z
			 M284.018,238.19c-0.435,0.741-0.896,1.176-1.737,1.371c-1.848,0.421-1.204-2.786-2.492-4.186
			c-1.05-1.149-1.918-1.513-3.165-2.465c-1.204-0.91-2.241-1.078-3.123-2.311c-1.302-1.82-1.569-3.542-0.869-5.671l1.19,0.252
			c2.311,0.504,3.543,1.036,5.867,1.526c2.073,0.449,4.341-0.938,5.377,0.939c0.351,0.616,0.378,1.063,0.448,1.778
			c0.21,2.157-1.694,3.081-1.849,5.251C283.57,236.048,284.704,237,284.018,238.19z M274.342,382.546
			c-2.759-3.108-4.061-5.097-6.456-8.514c-2.507-3.585-9.298-6.524-6.036-9.438c1.373-1.218,2.689-1.624,4.523-1.387
			c3.683,3.655,5.111,6.526,9.438,9.355c2.058,1.344,3.487,1.664,5.587,2.939c3.137,1.891,5.769,2.381,7.562,5.573
			c1.05,1.862,0.812,3.262,1.471,5.293c1.273,3.879,2.94,5.713,4.116,9.62c0.112,0.392,0.238,0.756,0.379,1.12
			c1.133,3.067,2.758,5.336,1.44,8.485c-0.434,1.037-0.672,1.709-1.524,2.438c-2.76,2.381-1.877-5.433-3.824-8.514
			c-0.573-0.926-1.135-1.695-1.694-2.409c-1.582-1.973-3.178-3.333-5.278-5.517C280.461,387.868,277.786,386.425,274.342,382.546z
			 M296.901,428.532c0.183-1.597,0.406-2.633,1.47-3.823c0.953-1.063,1.792-2.17,3.192-1.82c1.682,0.406,0.91,2.548,1.499,4.174
			c0.603,1.65,1.261,2.842,1.821,4.158c0.518,1.191,0.951,2.423,1.12,4.061c0.196,1.904,1.763,4.678-0.127,4.901
			c-1.049,0.112-1.525-0.657-2.422-1.204c-1.863-1.134-2.927-1.919-4.202-3.697c-1.021-1.414-1.819-2.618-2.184-4.02
			C296.845,430.423,296.775,429.569,296.901,428.532z M316.057,490.062c-0.589,1.302-0.952,2.171-2.129,2.953
			c-3.333,2.228-4.606-4.41-6.65-7.854c-3.306-5.615-1.947-10.055-4.216-16.159c-0.477-1.331-0.967-2.521-1.457-3.572
			c-2.086-4.816-4.242-8.232-7.225-13.54c-3.137-5.559-5.672-8.261-8.584-13.961c-1.147-2.255-3.585-4.593-5.069-6.666
			c-1.372-1.903-1.932-3.597,0.084-4.787c1.121-0.673,1.919-0.884,3.235-0.884c1.064,2.241,1.849,3.838,2.73,5.671
			c0.489,0.967,0.994,1.933,1.597,3.138c2.45,4.831,2.828,8.276,6.47,12.267c2.701,2.969,5.319,3.417,8.219,6.176
			c2.772,2.619,3.627,4.746,6.301,7.463c1.498,1.498,2.844,1.905,3.978,3.697c0.308,0.463,0.519,0.868,0.672,1.371
			c0.896,2.633-0.267,5.069,0.21,8.249c0.561,3.71,1.709,5.657,1.989,9.396C316.422,485.763,317.191,487.569,316.057,490.062z
			 M342.061,486.84c-0.211,2.241-0.042,3.838-1.472,5.588c-1.007,1.218-1.875,1.792-3.403,2.24c-0.096-2.395-0.32-3.767-0.993-6.063
			c-0.531-1.778-1.092-2.688-1.765-4.411c-1.539-3.878-2.547-6.021-3.821-9.983c-0.911-2.801-1.569-4.369-2.061-7.281
			c-0.083-0.533-0.154-1.037-0.224-1.5c-0.349-2.533-0.334-4.424-0.07-7.308c0.309-3.222-0.671-5.952,1.752-8.094
			c3.821-3.376,2.407,7.659,4.718,12.21c0.631,1.26,1.358,2.27,2.072,3.191c1.611,2.046,3.249,3.671,4.091,6.682
			c0.867,3.122,0.32,5.055,0.588,8.274C341.683,482.905,342.297,484.319,342.061,486.84z M342.173,418.227
			c-2.242,2.226-5.015,0.223-8.095-0.519c-3.193-0.756-4.845-1.765-7.715-3.36c-3.445-1.919-5.322-3.221-8.221-5.91
			c-1.848-1.707-2.939-2.688-4.397-4.746c-1.188-1.694-2.143-2.605-2.562-4.636c-0.154-0.728-0.28-1.33-0.295-1.946
			c-0.014-0.532,0.057-1.037,0.295-1.651c0.349-0.98,0.56-1.821,1.539-2.186c0.925-0.335,1.583,0.099,2.466,0.519
			c1.371,0.657,1.483,1.975,1.736,3.318c0.167,0.868,0.405,1.751,1.092,2.465c1.834,1.919,3.6,2.086,6.036,3.15
			c3.192,1.387,5.139,1.82,8.485,2.758c1.735,0.49,2.829,0.463,4.494,1.163c2.046,0.854,3.347,1.373,4.748,3.081
			c1.104,1.331,1.819,2.253,1.96,3.977C343.88,415.564,343.502,416.924,342.173,418.227z M339.4,381.973
			c-0.153,2.436,1.316,5.546-1.05,6.175c-1.178,0.309-2.06,0.042-3.053-0.657c-1.12-0.798-1.107-1.863-1.682-3.109
			c-1.414-3.025-2.029-4.887-2.407-8.191c-0.268-2.256-0.253-3.556,0-5.798c0.167-1.513-0.154-2.604,0.714-3.851
			c1.205-1.736,3.137-2.801,5.069-1.932c0.966,0.434,1.33,1.05,1.918,1.932c1.737,2.577-0.099,4.844,0,7.954
			C339.008,377.408,339.583,379.045,339.4,381.973z M362,362.872c-0.182,0.322-0.336,0.658-0.449,1.022
			c-0.644,2.059-0.938,3.263-1.68,5.293c-1.119,2.997-2.171,4.522-3.376,7.477c-0.698,1.682-1.329,2.563-1.692,4.342
			c-0.463,2.199,0.882,3.696,0,5.756c-0.505,1.177-0.785,2.086-1.933,2.66c-1.819,0.911-3.557-0.322-4.916-1.848
			c-1.287-1.429-1.021-2.857-1.357-4.748c-0.686-3.948-0.042-6.287,0.49-10.263c0.392-2.843-0.183-4.86,1.442-7.226
			c0.854-1.233,1.75-1.667,2.785-2.536c0.126-0.112,0.253-0.224,0.379-0.336c0.547-0.531,0.799-0.867,1.373-1.357
			c1.722-1.47,2.927-2.185,5.111-2.772c0.378-0.099,0.574-0.154,0.965-0.211c1.526-0.209,2.929-0.294,3.865,0.938
			C363.961,360.338,362.786,361.528,362,362.872z M361.147,344.837c-6.988,1.26-10.993,1.988-18.093,2.1
			c-3.626,0.042-5.755,0.448-9.284-0.35c-4.438-1.022-8.541-1.092-10.445-5.224c-0.911-2.002-2.114-3.921-0.687-5.573
			c0.448-0.532,0.841-0.728,1.457-1.063c2.954-1.597,5.194,0.924,8.527,1.275c4.326,0.434,6.777,0.518,11.118,0.476
			c2.702-0.015,5.377,1.946,6.903-0.281c1.442-2.101,0.197-4.579-1.666-6.314c-0.883-0.813-1.777-1.05-2.773-1.079
			c-0.98-0.083-2.03-0.07-3.206-0.309c-3.99-0.77-6.26-1.217-10.319-1.329c-1.079-0.028-1.695,0.098-2.759,0
			c-3.054-0.28-4.343-3.221-7.366-2.716c-1.947,0.321-2.745,1.414-4.467,2.407c-1.177,0.673-1.749,1.429-2.871,1.905
			c-0.182,0.07-0.377,0.139-0.588,0.195c-1.148,0.267-1.877-0.308-3.011,0c-2.198,0.575-3.221,1.988-4.172,4.047
			c-1.288,2.745-0.168,4.776,0.461,7.744c0.743,3.402,2.436,4.914,3.361,8.261c1.205,4.327,0.603,7.002,1.399,11.413
			c0.153,0.896,0.322,1.694,0.504,2.409c0.505,2.072,1.036,3.738,1.415,6.258c0.603,3.907,3.599,7.381,0.742,10.098
			c-1.162,1.092-2.143,1.47-3.711,1.736c-3.473,0.574-5.46-1.736-8.009-4.188c-1.471-1.4-2.073-2.423-3.123-4.172
			c-1.177-1.92-2.031-3.012-2.45-5.224c-0.323-1.764,0.014-3.066,0.405-4.509c0.238-0.841,0.49-1.723,0.645-2.802
			c1.077-7.687,4.663-12.196,2.716-19.716c-0.91-3.515-1.54-5.699-3.906-8.443c-1.33-1.526-2.66-2.101-4.076-3.067
			c-0.559-0.364-1.119-0.714-1.693-1.246c-1.75-1.596-2.632-2.631-4.104-4.494c-0.742-0.925-2.058-1.303-1.819-2.466
			c0.28-1.386,2.101-0.728,3.486-1.05c3.571-0.797,5.741-0.615,9.396-0.349c3.164,0.236,4.846,1.188,8.01,1.398
			c1.891,0.126,2.981,0.196,4.872,0c1.457-0.153,2.604,0.281,3.698-0.7c1.161-1.035,0.937-2.281,1.049-3.823
			c0.141-2.071-0.614-3.205-1.049-5.222c-0.588-2.772-1.275-4.271-1.64-7.071c-0.532-3.949-2.213-6.918,0.027-10.208
			c1.065-1.568,2.187-2.016,3.699-3.137c2.534-1.89,4.185-3.374,6.762-4.313c0.589-0.224,1.232-0.406,1.946-0.56
			c1.862-0.407,2.97-0.281,4.873-0.351c2.437-0.097,3.824-0.07,6.274,0c3.598,0.084,6.356-1.624,9.228,0.561
			c0.141,0.125,0.28,0.223,0.406,0.335c0.518,0.462,0.825,0.939,1.373,1.541c1.302,1.428,2.492,2.017,3.135,3.823
			c0.98,2.744-1.133,4.425-1.386,7.323c-0.238,2.647-0.238,4.173,0,6.833c0,0,0.688,1.904,1.737,2.087
			c1.232,0.209,1.345-1.47,2.436-2.087c1.121-0.644,1.876-0.771,3.123-1.05c0.938-0.21,1.483-0.294,2.451-0.35
			c2.604-0.154,4.004,0.841,6.608,1.05c2.521,0.196,3.963,0,6.498,0c1.483,0,2.339,0.141,3.821,0
			c2.521-0.253,3.811-1.105,6.274-1.737l4.173-1.05c3.375,2.928,5.377,4.481,9.032,7.03c4.004,2.785,8.346,2.254,10.684,6.552
			c1.472,2.677,1.793,4.664,1.429,7.688c-0.251,2.171-1.12,3.697-2.297,5.041c-1.609,1.835-3.794,3.306-5.741,5.588
			c-1.792,2.101-2.394,3.809-4.746,5.223c-4.426,2.661-8.094-0.742-13.234-0.351C373.988,339.949,369.66,343.31,361.147,344.837z
			 M445.416,484.67c-0.924,2.941-2.394,4.201-3.627,7.016c-1.246,2.843,0.154,8.625-2.716,7.464
			c-1.666-0.658-1.693-2.241-2.493-3.837c-1.372-2.787-1.499-4.635-2.043-7.701c-0.603-3.487-0.547-5.519-0.673-9.046
			c-0.127-3.403,0.126-5.335,0-8.739c-0.07-1.764-0.238-2.995-0.351-4.397c-0.041-0.657-0.083-1.371-0.097-2.169
			c-0.085-4.076-3.418-9.802,0.616-10.446c3.85-0.617,2.94,5.363,5.04,8.639c1.05,1.64,1.988,2.705,2.898,3.964
			c0.547,0.755,1.078,1.569,1.625,2.604c1.372,2.646,2.24,4.201,2.717,7.142C446.914,478.845,446.521,481.114,445.416,484.67z
			 M456.465,378.597c-1.134,2.494-2.563,3.488-3.614,6.021c-1.009,2.409-1.275,3.908-1.693,6.484
			c-0.379,2.365-0.336,4.187-0.21,6.007c0.084,1.526,0.21,3.137,0.183,5.057c-0.057,3.485-0.253,5.46-0.211,8.947
			c0.057,4.886,0.519,7.631,0.728,12.504c0.111,2.73,0.574,4.285,0.237,7.001c-0.027,0.21-0.056,0.435-0.07,0.644
			c-0.334,3.403-0.069,6.525-3.064,8.235c-1.262,0.727-2.172,1.288-3.585,0.952c-2.954-0.673,0.321-4.749-0.14-7.744
			c-0.099-0.531-0.197-1.063-0.337-1.484c-0.785-2.843-2.254-4.594-2.927-7.842c-0.826-3.949-0.028-6.356-0.729-10.334
			c-0.827-4.747-1.441-7.521-3.611-11.819c-0.562-1.105-0.42-2.296-1.569-2.786c-1.877-0.811-4.088,3.739-2.296,4.719
			c-0.294,2.27-0.504,3.545-0.953,5.784c-0.601,2.898,0.309,5.349-1.861,7.352c-1.219,1.119-2.285,2.31-3.865,1.792
			c-2.227-0.743,0.154-3.683,0.447-6.008c0.449-3.711,1.218-5.727,1.904-9.409c0.393-2.171,0.896-3.795,1.247-5.56
			c0.252-1.273,0.421-2.563,0.393-4.2c-0.084-3.979-0.883-6.204-2.13-9.984c-1.021-3.109-0.084-7.379-3.346-7.716
			c-0.378-0.028-0.588-0.028-0.966,0c0.98,1.316,1.359,2.269,1.58,3.878c0.364,2.604-1.105,3.965-1.818,6.499
			c-0.869,3.024-1.219,4.774-2.255,7.757c-0.532,1.54-1.064,2.674-1.596,3.809c-0.337,0.784-0.658,1.61-0.966,2.632
			c-0.813,2.662-1.234,4.217-1.458,6.987c-0.279,3.558,0.715,5.561,0.729,9.146c0,3.011-0.575,4.69-0.491,7.701
			c0.069,2.381,0.519,3.697,0.603,6.063c0.028,0.561,0.056,1.022,0.084,1.54c0.07,1.415,0.112,2.563-0.195,4.215
			c-0.45,2.366-0.715,3.865-2.17,5.783c-0.926,1.219-1.374,2.549-2.899,2.634c-2.38,0.125-0.84-3.642-1.205-6.008
			c-0.393-2.592-0.561-4.51-0.643-6.583c-0.042-1.288-0.069-2.645-0.084-4.269c-0.028-4.79-0.07-7.535,0.727-12.268
			c0.967-5.629,3.683-8.304,4.343-13.975c0.165-1.429,0.235-2.493,0.25-3.642c0.028-0.798,0.014-1.624-0.015-2.632
			c-0.07-3.586-0.096-5.658-0.965-9.131c-0.379-1.54,0.252-3.248-1.205-3.864c-1.848-0.799-2.155,2.338-3.135,4.104
			c-0.547,0.979-0.183,2.128-1.206,2.632c-1.482,0.713-2.029-1.639-3.122-2.871c-1.316-1.456-1.808-2.478-2.898-4.103
			c-1.373-2.031-1.331-3.949-3.375-5.308c-1.077-0.713-1.806-1.246-3.109-1.204c-1.875,0.071-3.262,1.107-3.864,2.898
			c0,0-2.492,0.197-4.089,0.238c-1.036,0.028-1.665-0.294-2.66,0c-1.219,0.351-1.777,0.98-2.646,1.932
			c-1.569,1.71-1.274,3.391-2.172,5.546c-0.896,2.172-1.246,3.473-2.408,5.517c-0.602,1.065-0.98,1.653-1.681,2.647
			c0,0-1.358-4.537-2.17-7.449c-0.588-2.058,0.042-3.753-1.457-5.308c-0.559-0.574-0.882-1.063-1.68-1.203
			c-1.513-0.238-1.737,1.665-2.633,2.897c-1.05,1.471-0.546,4.888-2.171,4.09c-1.357-0.658-0.294-2.339-0.475-3.853l-1.22-9.634
			l0.491-4.103c0.279-2.353,0.603-3.668,0.729-6.035c0-0.027,0-0.083,0-0.083c0.014-1.64-1.22-3.137,0-4.244
			c0.278-0.266,0.475-0.392,0.825-0.531c7.113-2.311,11.174-3.459,18.429-5.237c9.76-2.366,15.36-3.333,25.288-4.817
			c7.017-1.051,11.076-3.389,18.064-2.17c4.647,0.812,6.933,2.576,11.328,4.341c3.403,1.371,5.63,1.583,8.668,3.612
			c3.361,2.24,5.518,3.781,7.212,7.449c0.28,0.589,0.503,1.134,0.686,1.598c0.686,1.974,0.799,3.71,0.771,6.118
			C459.042,372.843,458.074,375.041,456.465,378.597z M460.05,410.874c-0.743-3.78-2.129-5.797-2.171-9.648
			c-0.014-1.637-0.098-2.87,0.154-4.144c0.11-0.589,0.293-1.205,0.573-1.877c0.378-0.896,0.448-1.568,1.204-2.17
			c0.758-0.604,1.429-0.631,2.381-0.688c2.072-0.111,3.318,0.813,4.804,2.241c0.881,0.826,1.357,1.638,1.722,2.521
			c0.266,0.645,0.477,1.372,0.743,2.185c0.461,1.457,0.643,2.339,0.712,3.864c0.169,3.067-0.769,4.775-1.68,7.716
			c-1.064,3.487-0.014,8.038-3.612,8.654c-1.317,0.224-2.198,0.125-3.375-0.491C458.621,417.567,460.678,414.039,460.05,410.874z
			 M476.096,469.826c-0.321,1.836-0.742,2.898-1.806,4.427c-0.868,1.23-1.793,1.539-2.73,2.715
			c-1.542,1.946-2.071,3.333-2.941,5.657c-0.378,1.037-0.56,1.624-0.826,2.689c-0.673-1.709-0.993-2.703-1.427-4.496
			c-0.52-2.085-0.478-3.332-0.911-5.432c-0.463-2.24-0.603-3.544-1.429-5.686c-0.632-1.598-1.302-2.353-1.961-3.949
			c-0.056-0.111-0.111-0.225-0.154-0.323c-1.063-2.422-2.31-4.005-1.889-6.691c0.378-2.424,2.268-3.15,3.177-5.434
			c0.589-1.526,1.303-2.437,1.121-4.076c-0.111-1.021-0.336-1.624-0.896-2.492l2.942,0.463c1.68,0.967,2.575,1.694,3.85,3.165
			c1.345,1.553,1.835,2.66,2.716,4.521c1.388,2.998,1.625,4.916,2.255,8.151c0.168,0.882,0.378,1.596,0.574,2.352
			C476.124,466.816,476.405,468.076,476.096,469.826z M482.23,404.838c-0.435,1.865-1.12,2.773-1.68,4.58
			c-0.435,1.4,0.154,2.688-0.967,3.627c-0.757,0.617-1.47,0.994-2.408,0.715c-1.751-0.491,0.308-2.815,0.715-4.579
			c0.307-1.331,0.951-2.003,0.965-3.376c0.027-1.903-0.84-2.87-1.68-4.579c-0.435-0.867-1.611-1.288-1.205-2.17
			c0.363-0.812,1.275-0.63,2.171-0.714c0.84-0.084,1.358-0.056,2.17,0.238c1.162,0.42,1.892,0.938,2.422,2.072
			C483.449,402.138,482.608,403.243,482.23,404.838z M494.328,456.02c-0.182,2.703-1.12,4.104-1.358,6.792
			c-0.084,0.952,0.154,1.807,0.365,2.617c0.251,1.065,0.434,2.06-0.365,3.04c-0.432,0.532-0.74,0.798-1.357,1.134l-2.255-1.134
			l-1.12-3.04l-0.699-1.945c0.363-1.639,0.462-2.604,0.462-4.285c-0.028-1.974-0.616-3.024-0.687-4.985
			c-0.028-0.713-0.043-1.105,0-1.819c0.111-2.255,0.056-3.739,1.246-5.658c0.406-0.672,0.616-1.119,1.247-1.582
			c0.615-0.435,1.049-0.602,1.806-0.687c1.161,1.597,1.694,2.647,2.269,4.537C494.679,451.623,494.51,453.29,494.328,456.02z
			 M530.105,378.794c0.07,0.993-0.25,1.722-1.05,2.324c-1.134,0.882-2.702,0.742-3.655-0.336l-13.189-17.951l-5.349-7.269
			c-7.156-9.102-11.274-14.185-18.667-23.091c-1.12-1.344-2.1-2.479-3.024-3.626c-2.17-2.591-4.031-4.79-6.721-7.941l-1.569-3.892
			l0.785,0.267c5.503,4.228,9.829,7.757,13.833,11.497c4.805,4.438,9.159,9.087,14.592,15.359
			c6.105,7.087,9.775,11.945,14.255,18.708c1.037,1.568,2.114,3.235,3.276,5.055C526.269,372.072,527.697,374.467,530.105,378.794z"
			/>
	</g>
</svg>
